PathFileType  4	(X/Y/Z) C:\Users\15086\Documents\GitHub\mocap-processing\NordTesting\KristenNordTest\
DataRate	CameraRate	NumFrames	NumMarkers	Units	OrigDataRate	OrigDataStartFrame	OrigNumFrames
  200.0		  200.0		   4		     52		 mm	  200.0	      361	   2882
Frame#	Time	C7			R_Shoulder			L_Shoulder			Sternum			R_humerus			R_elbow_med			R_elbow_lat			R_forearm			R_wrist_radius			R_wrist_ulna			L_humerus			L_elbow_med			L_elbow_lat			L_forearm			L_wrist_radius			L_wrist_ulna			r.ASIS			r.PSIS			r_IC			L.ASIS			L.PSIS			l_IC			r_thigh1			r_thigh2			r_thigh3			r_thigh4			r_thigh5			r_knee			r_mknee			r_shank_antsup			r_sh2			r_sh3			r_sh4			r_ankle			r_mankle			r_calc			r_5meta			r_toe			L_thigh1			L_thigh2			L_thigh3			L_thigh4			L_knee			L_mknee			L_shank_antsup			L_sh2			L_sh3			L_ankle			L_mankle			L_calc			L_5meta			L_toe			
		X1	Y1	Z1	X2	Y2	Z2	X3	Y3	Z3	X4	Y4	Z4	X5	Y5	Z5	X6	Y6	Z6	X7	Y7	Z7	X8	Y8	Z8	X9	Y9	Z9	X10	Y10	Z10	X11	Y11	Z11	X12	Y12	Z12	X13	Y13	Z13	X14	Y14	Z14	X15	Y15	Z15	X16	Y16	Z16	X17	Y17	Z17	X18	Y18	Z18	X19	Y19	Z19	X20	Y20	Z20	X21	Y21	Z21	X22	Y22	Z22	X23	Y23	Z23	X24	Y24	Z24	X25	Y25	Z25	X26	Y26	Z26	X27	Y27	Z27	X28	Y28	Z28	X29	Y29	Z29	X30	Y30	Z30	X31	Y31	Z31	X32	Y32	Z32	X33	Y33	Z33	X34	Y34	Z34	X35	Y35	Z35	X36	Y36	Z36	X37	Y37	Z37	X38	Y38	Z38	X39	Y39	Z39	X40	Y40	Z40	X41	Y41	Z41	X42	Y42	Z42	X43	Y43	Z43	X44	Y44	Z44	X45	Y45	Z45	X46	Y46	Z46	X47	Y47	Z47	X48	Y48	Z48	X49	Y49	Z49	X50	Y50	Z50	X51	Y51	Z51	X52	Y52	Z52	

361	1.80000	1203.449	1285.842	-341.892	1319.939	1289.706	-386.204	1078.082	1304.970	-386.794	1200.003	1246.262	-475.090	1493.151	1295.207	-365.116	1637.202	1244.268	-407.499	1628.243	1283.991	-339.826	1610.181	1400.845	-397.469	1570.709	1478.600	-478.356	1610.965	1496.387	-458.081	877.017	1313.339	-372.592	753.448	1260.578	-426.648	752.573	1298.385	-360.548	805.313	1423.584	-425.397	858.645	1484.435	-484.907	804.805	1501.682	-483.666	1311.228	773.887	-465.501	1263.260	859.809	-295.125	1348.320	866.458	-405.673	1071.384	771.739	-456.746	1147.862	853.838	-294.470	1047.617	855.797	-405.021	1379.666	526.929	-413.237	1380.729	412.488	-401.762	1396.615	389.297	-351.745	1389.142	541.298	-306.055	1372.261	422.319	-296.781	1382.501	309.957	-350.564	1254.222	316.477	-331.607	1399.144	296.510	-222.119	1382.157	295.672	-102.532	1395.576	372.574	-219.475	1382.156	378.751	-104.483	1365.767	340.719	68.470	1289.908	307.787	49.172	1309.814	392.771	99.090	1386.643	235.448	136.451	1350.363	184.343	109.701	1007.190	522.377	-406.071	1007.249	384.136	-388.216	1005.707	544.228	-288.282	1015.322	406.527	-275.335	995.172	326.562	-315.063	1124.498	305.348	-316.388	979.383	307.703	-207.124	999.180	396.536	-212.330	1009.134	392.796	-91.661	1012.549	356.540	95.369	1087.510	315.092	63.725	1065.232	403.725	114.060	1003.389	233.947	161.290	1043.515	183.425	128.177
362	1.80500	1203.536	1285.749	-342.251	1319.950	1289.574	-386.494	1078.067	1304.932	-387.111	1200.074	1246.119	-475.334	1493.153	1295.079	-365.344	1636.872	1244.061	-407.708	1628.262	1283.865	-340.032	1610.174	1400.764	-397.681	1570.706	1478.536	-478.628	1611.010	1496.291	-458.317	877.023	1313.238	-372.866	753.390	1260.577	-426.971	752.548	1298.355	-360.897	805.280	1423.583	-425.799	858.721	1484.306	-485.345	804.841	1501.626	-484.079	1311.241	773.821	-465.606	1263.260	859.844	-295.306	1348.309	866.404	-405.809	1071.389	771.761	-456.859	1148.057	853.994	-294.622	1047.615	855.775	-405.198	1379.671	526.899	-413.280	1380.736	412.495	-401.835	1396.630	389.286	-351.737	1389.173	541.325	-306.169	1372.255	422.329	-296.865	1382.516	309.927	-350.580	1254.216	316.458	-331.635	1399.072	296.636	-222.130	1382.110	295.868	-102.507	1395.523	372.674	-219.545	1382.049	378.927	-104.555	1365.639	340.957	68.449	1289.810	308.103	49.150	1309.633	393.083	98.977	1386.579	235.754	136.534	1350.294	184.711	109.802	1007.204	522.337	-406.122	1007.232	384.124	-388.243	1005.723	544.226	-288.332	1015.318	406.525	-275.379	995.160	326.577	-315.088	1124.497	305.335	-316.420	979.465	307.653	-207.271	999.154	396.553	-212.370	1009.093	392.884	-91.705	1012.504	356.715	95.324	1087.458	315.251	63.724	1065.151	403.914	114.009	1003.378	234.164	161.355	1043.466	183.705	128.275
363	1.81000	1203.529	1285.729	-342.565	1319.915	1289.518	-386.778	1078.043	1304.903	-387.422	1200.064	1246.053	-475.614	1493.166	1295.011	-365.559	1637.229	1243.989	-408.142	1628.226	1283.783	-340.226	1610.268	1400.604	-397.817	1570.728	1478.458	-478.888	1611.038	1496.197	-458.533	877.082	1313.125	-373.230	753.356	1260.574	-427.270	752.537	1298.323	-361.275	805.297	1423.505	-426.170	858.735	1484.219	-485.735	804.856	1501.565	-484.497	1311.267	773.738	-465.701	1263.243	859.854	-295.468	1348.329	866.364	-405.945	1071.408	771.703	-456.995	1148.081	854.015	-294.815	1047.612	855.756	-405.362	1379.643	526.887	-413.400	1380.725	412.510	-401.862	1396.642	389.293	-351.802	1389.141	541.336	-306.224	1371.439	422.483	-296.813	1382.555	309.895	-350.602	1254.193	316.457	-331.652	1398.911	296.915	-222.166	1382.068	296.089	-102.543	1395.857	373.320	-219.302	1381.915	379.129	-104.644	1365.551	341.239	68.419	1289.714	308.297	49.125	1309.436	393.365	98.887	1386.511	236.124	136.587	1350.330	184.971	109.920	1007.231	522.352	-406.213	1007.266	384.109	-388.269	1005.635	544.215	-288.473	1015.302	406.536	-275.421	995.180	326.583	-315.083	1124.493	305.351	-316.384	979.448	307.724	-207.251	999.140	396.591	-212.415	1009.080	392.990	-91.781	1012.447	356.903	95.302	1087.429	315.356	63.708	1065.114	404.094	113.957	1003.331	234.378	161.433	1043.434	183.945	128.377
364	1.81500	1203.453	1285.746	-342.830	1319.879	1289.464	-387.055	1078.027	1304.879	-387.742	1200.073	1246.017	-475.902	1493.143	1294.953	-365.769	1637.214	1243.906	-408.338	1628.200	1283.713	-340.413	1610.215	1400.544	-398.130	1570.749	1478.379	-479.180	1611.095	1496.102	-458.790	877.018	1313.162	-373.527	753.288	1260.591	-427.568	752.511	1298.317	-361.605	805.343	1423.410	-426.539	858.758	1484.151	-486.171	804.887	1501.515	-484.882	1311.255	773.700	-465.815	1263.240	859.826	-295.642	1348.335	866.293	-406.094	1071.373	771.622	-457.112	1148.048	854.022	-294.975	1047.599	855.720	-405.499	1379.646	526.887	-413.439	1380.735	412.511	-401.935	1396.641	389.289	-351.820	1389.146	541.345	-306.286	1372.227	422.331	-296.960	1382.575	309.873	-350.591	1254.210	316.425	-331.711	1398.889	297.051	-222.155	1381.997	296.245	-102.555	1395.380	372.911	-219.670	1381.775	379.324	-104.767	1365.412	341.557	68.375	1289.640	308.494	49.078	1309.247	393.618	98.761	1386.463	236.474	136.705	1350.294	185.260	110.060	1007.193	522.318	-406.261	1007.247	384.078	-388.307	1005.625	544.255	-288.535	1015.276	406.558	-275.437	995.172	326.561	-315.100	1124.493	305.356	-316.396	979.382	307.722	-207.180	999.138	396.639	-212.483	1009.077	393.112	-91.841	1012.403	357.044	95.272	1087.369	315.480	63.726	1064.614	404.059	113.899	1002.768	234.306	161.545	1043.386	184.123	128.494
